<?xml version="1.0" encoding="UTF-8"?><svg id="_レイヤー_1" xmlns="http://www.w3.org/2000/svg" viewBox="0 0 202.68 226.44"><defs><style>.cls-1{fill:#8ff476;}.cls-2{fill:#fff;}</style></defs><path class="cls-2" d="M5.99,196.51h12.52c9.24,0,14.75,4.83,14.75,12.48,0,10.56-7.57,17.45-18.64,17.45H0l5.99-29.93ZM14.84,220.76c7.18,0,11.42-4.88,11.42-11.38,0-4.44-2.87-7.18-8.51-7.18h-5.95l-3.72,18.56h6.76Z"/><path class="cls-2" d="M42.62,196.51h6.97l-5.99,29.93h-6.97l5.99-29.93Z"/><path class="cls-2" d="M88.39,196.51l-18.94,29.93h-6.8l-6.97-29.93h7.14l4.83,21.34,13.55-21.34h7.18Z"/><path class="cls-2" d="M94.73,196.51h6.97l-5.99,29.93h-6.97l5.99-29.93Z"/><path class="cls-2" d="M110.9,196.51h12.52c9.24,0,14.75,4.83,14.75,12.48,0,10.56-7.57,17.45-18.64,17.45h-14.62l5.99-29.93ZM119.74,220.76c7.18,0,11.42-4.88,11.42-11.38,0-4.44-2.87-7.18-8.51-7.18h-5.95l-3.72,18.56h6.76Z"/><path class="cls-2" d="M153.71,202.07l-1.28,6.5h13.9l-1.06,5.39h-13.94l-1.37,6.93h16.33l-1.15,5.56h-23.17l5.99-29.93h22.62l-1.16,5.56h-15.69Z"/><path class="cls-2" d="M194.13,217.2l5.21,9.24h-7.31l-4.7-8.38h-5.9l-1.67,8.38h-6.97l5.99-29.93h12.18c7.44,0,11.72,3.42,11.72,9.28s-3.21,9.75-8.55,11.41ZM195.67,206.43c0-2.91-2.05-4.27-5.6-4.27h-5.47l-2.09,10.39h5.9c4.57,0,7.27-2.14,7.27-6.12Z"/><polygon class="cls-1" points="186.42 3.89 135.99 168.36 106.58 168.36 106.58 168.46 54.61 168.46 54.61 161.35 87 161.35 160.49 0 170.69 11.22 186.42 3.89"/></svg>